STARTFONT 2.1
FONT -Untitled-Regular-R-Regular--0-0-75-75-c-80-iso10646-1
SIZE 0 75 75
FONTBOUNDINGBOX 18 16 -8 -8
STARTPROPERTIES 9
FAMILY_NAME Untitled
WEIGHT_NAME Regular
FONT_VERSION Version 1.0
FOUNDRY Made with Bits'n'Picas by Kreative Software
FONT_ASCENT 0
FONT_DESCENT 0
CAP_HEIGHT 0
POINT_SIZE 0
X_HEIGHT 0
ENDPROPERTIES
CHARS 2
STARTCHAR U+0021
ENCODING 33
SWIDTH 0 0
DWIDTH 0 0
BBX 18 16 -8 -8
BITMAP
000000
000000
000000
0FFFC0
081040
09C240
0BEA40
09EA40
08E840
086C40
896C40
892840
08A240
080040
080C40
0FFFC0
ENDCHAR
STARTCHAR U+0274
ENCODING 628
SWIDTH 0 0
DWIDTH 0 0
BBX 0 0 0 0
BITMAP
ENDCHAR
ENDFONT
